# xmcd
#
# Track frame offsets:
#	150
#	18612
#	41655
#	75945
#	102330
#	128265
#	145687
#	172297
#	204732
#	231282
#	256102
#
# Disc length: 3682 seconds
#
# Revision: 9
# Processed by: cddbd v1.5.2PL0 Copyright (c) Steve Scherf et al.
# Submitted via: audiograbber 1.83.01
#
DISCID=8c0e600b
DTITLE=Randy Crawford - Naked And True
DYEAR=1995
DGENRE=R&B
TTITLE0=Cajun Moon
TTITLE1=Give Me The Night
TTITLE2=The Glow Of Love
TTITLE3=Purple Rain
TTITLE4=Forget Me Nots
TTITLE5=I'll Be Around
TTITLE6=Joy Inside My Tears
TTITLE7=Come Into My Life
TTITLE8=What A Difference A Day Makes
TTITLE9=Holding Back The Years
TTITLE10=All The Kings Horses
EXTD=
EXTT0=
EXTT1=
EXTT2=
EXTT3=
EXTT4=
EXTT5=
EXTT6=
EXTT7=
EXTT8=
EXTT9=
EXTT10=
PLAYORDER=
